<?xml version="1.0" encoding="UTF-8" standalone="no"?>
<svg width="80px" height="80px" viewBox="-17 0 80 80" version="1.1" xmlns="http://www.w3.org/2000/svg" xmlns:xlink="http://www.w3.org/1999/xlink" xmlns:sketch="http://www.bohemiancoding.com/sketch/ns">
    <!-- Generator: Sketch 3.2.1 (9977) - http://www.bohemiancoding.com/sketch -->
    <title>icon-women</title>
    <desc>Created with Sketch.</desc>
    <defs></defs>
    <g id="Page-1" stroke="none" stroke-width="1" fill="none" fill-rule="evenodd" sketch:type="MSPage">
        <g id="icon-women" sketch:type="MSLayerGroup" fill="#FFFFFF">
            <path d="M23.5,15.8 C27.9,15.8 31.5,12.2 31.5,7.9 C31.5,3.5 27.9,5.68434189e-14 23.5,5.68434189e-14 C19.1,5.68434189e-14 15.5,3.6 15.5,7.9 C15.5,12.2 19.1,15.8 23.5,15.8 L23.5,15.8 Z M46.9,43.7 C45.5,36 42.1,29.5 39.7,25.4 C36.5,20 33.2,15.1 29.1,16.5 C24.8,17.9 20.4,17.2 18,16.5 C13.8,15.3 10.6,20 7.4,25.4 C5,29.5 1.6,36 0.2,43.7 C-0.5,47.3 4.3,49.5 5.5,45.4 C7.5,38.5 10.1,33.4 13.5,28.5 C15,26.3 16.2,27.1 14.2,33.1 C12.3,39.1 8.2,51.8 8.2,66.6 C8.2,69.4 10.5,69.7 12.4,70 C13,70.1 14.2,70.1 14.2,70.2 L14.2,78.6 C14.2,80.3 15.5,81.7 17.2,81.7 C18.9,81.7 20.2,80.3 20.2,78.6 L20.2,70.5 L26.2,70.5 L26.2,78.6 C26.2,80.3 28,81.7 29.7,81.7 C31.4,81.7 33.2,80.3 33.2,78.6 L33.2,70.2 C33.2,70.1 34.6,70.1 35.4,70 C37.3,69.8 39.3,69.4 39.3,66.6 C39.3,51.8 35.1,39.1 33.2,33.1 C31.3,27.1 32.3,26.3 33.9,28.5 C37.3,33.3 39.8,38.5 41.8,45.4 C42.8,49.5 47.6,47.4 46.9,43.7 L46.9,43.7 Z" id="Shape" sketch:type="MSShapeGroup"></path>
        </g>
    </g>
</svg>
