<?xml version="1.0" encoding="UTF-8" standalone="no"?>
<svg width="80px" height="80px" viewBox="-9 -9 80 80" version="1.1" xmlns="http://www.w3.org/2000/svg" xmlns:xlink="http://www.w3.org/1999/xlink" xmlns:sketch="http://www.bohemiancoding.com/sketch/ns">
    <!-- Generator: Sketch 3.2.1 (9977) - http://www.bohemiancoding.com/sketch -->
    <title>icon-youth</title>
    <desc>Created with Sketch.</desc>
    <defs>
        <path id="path-1" d="M28.2,0.7 C13.1,0.7 0.8,13 0.8,28.1 C0.8,43.2 13.1,55.5 28.2,55.5 C43.3,55.5 55.6,43.2 55.6,28.1 C55.6,13 43.3,0.7 28.2,0.7 L28.2,0.7 Z"></path>
        <path id="path-3" d="M28.2,0.7 C13.1,0.7 0.8,13 0.8,28.1 C0.8,43.2 13.1,55.5 28.2,55.5 C43.3,55.5 55.6,43.2 55.6,28.1 C55.6,13 43.3,0.7 28.2,0.7 L28.2,0.7 Z"></path>
        <path id="path-5" d="M28.2,0.7 C13.1,0.7 0.8,13 0.8,28.1 C0.8,43.2 13.1,55.5 28.2,55.5 C43.3,55.5 55.6,43.2 55.6,28.1 C55.6,13 43.3,0.7 28.2,0.7 L28.2,0.7 Z"></path>
        <path id="path-7" d="M28.2,0.7 C13.1,0.7 0.8,13 0.8,28.1 C0.8,43.2 13.1,55.5 28.2,55.5 C43.3,55.5 55.6,43.2 55.6,28.1 C55.6,13 43.3,0.7 28.2,0.7 L28.2,0.7 Z"></path>
        <path id="path-9" d="M28.2,0.7 C13.1,0.7 0.8,13 0.8,28.1 C0.8,43.2 13.1,55.5 28.2,55.5 C43.3,55.5 55.6,43.2 55.6,28.1 C55.6,13 43.3,0.7 28.2,0.7 L28.2,0.7 Z"></path>
        <path id="path-11" d="M28.2,0.7 C13.1,0.7 0.8,13 0.8,28.1 C0.8,43.2 13.1,55.5 28.2,55.5 C43.3,55.5 55.6,43.2 55.6,28.1 C55.6,13 43.3,0.7 28.2,0.7 L28.2,0.7 Z"></path>
        <path id="path-13" d="M28.2,0.7 C13.1,0.7 0.8,13 0.8,28.1 C0.8,43.2 13.1,55.5 28.2,55.5 C43.3,55.5 55.6,43.2 55.6,28.1 C55.6,13 43.3,0.7 28.2,0.7 L28.2,0.7 Z"></path>
        <path id="path-15" d="M28.2,0.7 C13.1,0.7 0.8,13 0.8,28.1 C0.8,43.2 13.1,55.5 28.2,55.5 C43.3,55.5 55.6,43.2 55.6,28.1 C55.6,13 43.3,0.7 28.2,0.7 L28.2,0.7 Z"></path>
        <path id="path-17" d="M28.2,0.7 C13.1,0.7 0.8,13 0.8,28.1 C0.8,43.2 13.1,55.5 28.2,55.5 C43.3,55.5 55.6,43.2 55.6,28.1 C55.6,13 43.3,0.7 28.2,0.7 L28.2,0.7 Z"></path>
        <path id="path-19" d="M28.2,0.7 C13.1,0.7 0.8,13 0.8,28.1 C0.8,43.2 13.1,55.5 28.2,55.5 C43.3,55.5 55.6,43.2 55.6,28.1 C55.6,13 43.3,0.7 28.2,0.7 L28.2,0.7 Z"></path>
        <path id="path-21" d="M28.2,0.7 C13.1,0.7 0.8,13 0.8,28.1 C0.8,43.2 13.1,55.5 28.2,55.5 C43.3,55.5 55.6,43.2 55.6,28.1 C55.6,13 43.3,0.7 28.2,0.7 L28.2,0.7 Z"></path>
        <path id="path-23" d="M28.2,0.7 C13.1,0.7 0.8,13 0.8,28.1 C0.8,43.2 13.1,55.5 28.2,55.5 C43.3,55.5 55.6,43.2 55.6,28.1 C55.6,13 43.3,0.7 28.2,0.7 L28.2,0.7 Z"></path>
        <path id="path-25" d="M28.2,0.7 C13.1,0.7 0.8,13 0.8,28.1 C0.8,43.2 13.1,55.5 28.2,55.5 C43.3,55.5 55.6,43.2 55.6,28.1 C55.6,13 43.3,0.7 28.2,0.7 L28.2,0.7 Z"></path>
        <path id="path-27" d="M28.2,0.7 C13.1,0.7 0.8,13 0.8,28.1 C0.8,43.2 13.1,55.5 28.2,55.5 C43.3,55.5 55.6,43.2 55.6,28.1 C55.6,13 43.3,0.7 28.2,0.7 L28.2,0.7 Z"></path>
        <path id="path-29" d="M28.2,0.7 C13.1,0.7 0.8,13 0.8,28.1 C0.8,43.2 13.1,55.5 28.2,55.5 C43.3,55.5 55.6,43.2 55.6,28.1 C55.6,13 43.3,0.7 28.2,0.7 L28.2,0.7 Z"></path>
        <path id="path-31" d="M28.2,0.7 C13.1,0.7 0.8,13 0.8,28.1 C0.8,43.2 13.1,55.5 28.2,55.5 C43.3,55.5 55.6,43.2 55.6,28.1 C55.6,13 43.3,0.7 28.2,0.7 L28.2,0.7 Z"></path>
        <path id="path-33" d="M28.2,0.7 C13.1,0.7 0.8,13 0.8,28.1 C0.8,43.2 13.1,55.5 28.2,55.5 C43.3,55.5 55.6,43.2 55.6,28.1 C55.6,13 43.3,0.7 28.2,0.7 L28.2,0.7 Z"></path>
        <path id="path-35" d="M28.2,0.7 C13.1,0.7 0.8,13 0.8,28.1 C0.8,43.2 13.1,55.5 28.2,55.5 C43.3,55.5 55.6,43.2 55.6,28.1 C55.6,13 43.3,0.7 28.2,0.7 L28.2,0.7 Z"></path>
    </defs>
    <g id="Page-1" stroke="none" stroke-width="1" fill="none" fill-rule="evenodd" sketch:type="MSPage">
        <g id="icon-youth" sketch:type="MSLayerGroup">
            <g id="Group" transform="translate(3.000000, 3.000000)">
                <g id="Clipped">
                    <mask id="mask-2" sketch:name="SVGID_1_" fill="white">
                        <use xlink:href="#path-1"></use>
                    </mask>
                    <g id="SVGID_1_"></g>
                    <path d="M22.4,24.1 L21.2,10.6 L33.7,5.3 L42.6,15.5 L35.7,27.1 L22.4,24.1 Z" id="Shape" stroke="#000000" stroke-width="0.07150879" fill="#FFFFFF" sketch:type="MSShapeGroup" mask="url(#mask-2)"></path>
                </g>
                <g id="Clipped">
                    <mask id="mask-4" sketch:name="SVGID_1_" fill="white">
                        <use xlink:href="#path-3"></use>
                    </mask>
                    <g id="SVGID_1_"></g>
                    <path d="M30.3,40.8 L38.7,32.4 L47.6,36.1 L44.7,46.8 L34,49.7 L30.3,40.8 Z" id="Shape" stroke="#000000" stroke-width="0.07150879" fill="#FFFFFF" sketch:type="MSShapeGroup" mask="url(#mask-4)"></path>
                </g>
                <g id="Clipped">
                    <mask id="mask-6" sketch:name="SVGID_1_" fill="white">
                        <use xlink:href="#path-5"></use>
                    </mask>
                    <g id="SVGID_1_"></g>
                    <path d="M14.8,29.5 L25.8,20.7" id="Shape" stroke="#FFFFFF" stroke-width="2.8604" sketch:type="MSShapeGroup" mask="url(#mask-6)"></path>
                </g>
                <g id="Clipped">
                    <mask id="mask-8" sketch:name="SVGID_1_" fill="white">
                        <use xlink:href="#path-7"></use>
                    </mask>
                    <g id="SVGID_1_"></g>
                    <path d="M11,35.6 L-4.2,39.9" id="Shape" stroke="#FFFFFF" stroke-width="2.8604" sketch:type="MSShapeGroup" mask="url(#mask-8)"></path>
                </g>
                <g id="Clipped">
                    <mask id="mask-10" sketch:name="SVGID_1_" fill="white">
                        <use xlink:href="#path-9"></use>
                    </mask>
                    <g id="SVGID_1_"></g>
                    <path d="M8.6,30.3 L6.9,16.8" id="Shape" stroke="#FFFFFF" stroke-width="2.8604" sketch:type="MSShapeGroup" mask="url(#mask-10)"></path>
                </g>
                <g id="Clipped">
                    <mask id="mask-12" sketch:name="SVGID_1_" fill="white">
                        <use xlink:href="#path-11"></use>
                    </mask>
                    <g id="SVGID_1_"></g>
                    <path d="M8.7,12.3 L27,11.1" id="Shape" stroke="#FFFFFF" stroke-width="2.8604" sketch:type="MSShapeGroup" mask="url(#mask-12)"></path>
                </g>
                <g id="Clipped">
                    <mask id="mask-14" sketch:name="SVGID_1_" fill="white">
                        <use xlink:href="#path-13"></use>
                    </mask>
                    <g id="SVGID_1_"></g>
                    <path d="M39.7,36.8 L33.9,22.1" id="Shape" stroke="#FFFFFF" stroke-width="2.8604" sketch:type="MSShapeGroup" mask="url(#mask-14)"></path>
                </g>
                <g id="Clipped">
                    <mask id="mask-16" sketch:name="SVGID_1_" fill="white">
                        <use xlink:href="#path-15"></use>
                    </mask>
                    <g id="SVGID_1_"></g>
                    <path d="M32.7,41.1 L18.1,38" id="Shape" stroke="#FFFFFF" stroke-width="2.8604" sketch:type="MSShapeGroup" mask="url(#mask-16)"></path>
                </g>
                <g id="Clipped">
                    <mask id="mask-18" sketch:name="SVGID_1_" fill="white">
                        <use xlink:href="#path-17"></use>
                    </mask>
                    <g id="SVGID_1_"></g>
                    <path d="M54.5,26.5 L45.5,38.4" id="Shape" stroke="#FFFFFF" stroke-width="2.8604" sketch:type="MSShapeGroup" mask="url(#mask-18)"></path>
                </g>
                <g id="Clipped">
                    <mask id="mask-20" sketch:name="SVGID_1_" fill="white">
                        <use xlink:href="#path-19"></use>
                    </mask>
                    <g id="SVGID_1_"></g>
                    <path d="M49.6,52.4 L39.7,39.8" id="Shape" stroke="#FFFFFF" stroke-width="2.8604" sketch:type="MSShapeGroup" mask="url(#mask-20)"></path>
                </g>
                <g id="Clipped">
                    <mask id="mask-22" sketch:name="SVGID_1_" fill="white">
                        <use xlink:href="#path-21"></use>
                    </mask>
                    <g id="SVGID_1_"></g>
                    <path d="M54.7,18.6 L38,14.6" id="Shape" stroke="#FFFFFF" stroke-width="2.8604" sketch:type="MSShapeGroup" mask="url(#mask-22)"></path>
                </g>
                <g id="Clipped">
                    <mask id="mask-24" sketch:name="SVGID_1_" fill="white">
                        <use xlink:href="#path-23"></use>
                    </mask>
                    <g id="SVGID_1_"></g>
                    <path d="M32.6,9.2 L35.3,-1.6" id="Shape" stroke="#FFFFFF" stroke-width="2.8604" sketch:type="MSShapeGroup" mask="url(#mask-24)"></path>
                </g>
                <g id="Clipped">
                    <mask id="mask-26" sketch:name="SVGID_1_" fill="white">
                        <use xlink:href="#path-25"></use>
                    </mask>
                    <g id="SVGID_1_"></g>
                    <path d="M19.2,53 L12.6,40.7" id="Shape" stroke="#FFFFFF" stroke-width="2.8604" sketch:type="MSShapeGroup" mask="url(#mask-26)"></path>
                </g>
                <g id="Clipped">
                    <mask id="mask-28" sketch:name="SVGID_1_" fill="white">
                        <use xlink:href="#path-27"></use>
                    </mask>
                    <g id="SVGID_1_"></g>
                    <path d="M36.9,46.5 L25.4,54.5" id="Shape" stroke="#FFFFFF" stroke-width="2.8604" sketch:type="MSShapeGroup" mask="url(#mask-28)"></path>
                </g>
                <g id="Clipped">
                    <mask id="mask-30" sketch:name="SVGID_1_" fill="white">
                        <use xlink:href="#path-29"></use>
                    </mask>
                    <g id="SVGID_1_"></g>
                    <path d="M16.4,28.4 L20.1,38.9 L13.4,44.9 L5.6,38.1 L7.5,27.9 L16.4,28.4 Z" id="Shape" fill="#FFFFFF" sketch:type="MSShapeGroup" mask="url(#mask-30)"></path>
                </g>
                <g id="Clipped">
                    <mask id="mask-32" sketch:name="SVGID_1_" fill="white">
                        <use xlink:href="#path-31"></use>
                    </mask>
                    <g id="SVGID_1_"></g>
                    <path d="M19.1,50.1 L28.7,51.9 L30.5,58.5 L22,60.7 L15,55.6 L19.1,50.1 Z" id="Shape" fill="#FFFFFF" sketch:type="MSShapeGroup" mask="url(#mask-32)"></path>
                </g>
                <g id="Clipped">
                    <mask id="mask-34" sketch:name="SVGID_1_" fill="white">
                        <use xlink:href="#path-33"></use>
                    </mask>
                    <g id="SVGID_1_"></g>
                    <path d="M53.5,28.2 L50.8,18.8 L55.8,14.3 L61.6,20.8 L60.2,29.4 L53.5,28.2 Z" id="Shape" fill="#FFFFFF" sketch:type="MSShapeGroup" mask="url(#mask-34)"></path>
                </g>
                <g id="Clipped">
                    <mask id="mask-36" sketch:name="SVGID_1_" fill="white">
                        <use xlink:href="#path-35"></use>
                    </mask>
                    <g id="SVGID_1_"></g>
                    <path d="M12.7,12.3 L7,20.2 L0.3,19.1 L1.9,10.5 L9.5,6.3 L12.7,12.3 Z" id="Shape" fill="#FFFFFF" sketch:type="MSShapeGroup" mask="url(#mask-36)"></path>
                </g>
            </g>
            <path d="M31.2,61.6 C14.4,61.6 0.6,47.9 0.6,31 C0.6,14.2 14.3,0.4 31.2,0.4 C48.1,0.4 61.8,14.1 61.8,31 C61.8,47.9 48.1,61.6 31.2,61.6 L31.2,61.6 Z M31.2,4.8 C16.7,4.8 4.9,16.6 4.9,31.1 C4.9,45.6 16.7,57.4 31.2,57.4 C45.7,57.4 57.5,45.6 57.5,31.1 C57.5,16.6 45.7,4.8 31.2,4.8 L31.2,4.8 Z" id="Shape" fill="#FFFFFF" sketch:type="MSShapeGroup"></path>
        </g>
    </g>
</svg>
